HIERARCHY
ROOT Hips
{
	OFFSET 0.000000 89.005402 0.000000
	CHANNELS 6 Xposition Yposition Zposition Xrotation Yrotation Zrotation
	JOINT Spine
	{
		OFFSET 0.116900 10.681000 0.373400
		CHANNELS 3 Xrotation Yrotation Zrotation
		JOINT Spine1
		{
			OFFSET 0.000000 13.840401 0.053500
			CHANNELS 3 Xrotation Yrotation Zrotation
			JOINT Spine2
			{
				OFFSET 0.000000 14.712700 -0.366200
				CHANNELS 3 Xrotation Yrotation Zrotation
				JOINT Neck
				{
					OFFSET 0.000000 35.415497 -3.314200
					CHANNELS 3 Xrotation Yrotation Zrotation
					JOINT Head
					{
						OFFSET 0.000000 16.899200 1.218300
						CHANNELS 3 Xrotation Yrotation Zrotation
						JOINT HeadTop_End
						{
							OFFSET 0.000000 22.206207 2.192500
							CHANNELS 3 Xrotation Yrotation Zrotation
							End Site
							{
								OFFSET 0.000000 22.314178 0.000000
							}
						}
					}
				}
				JOINT LeftShoulder
				{
					OFFSET 12.896400 26.716293 -4.548400
					CHANNELS 3 Xrotation Yrotation Zrotation
					JOINT LeftArm
					{
						OFFSET 19.027000 -4.857010 -1.718400
						CHANNELS 3 Xrotation Yrotation Zrotation
						JOINT LeftForeArm
						{
							OFFSET 24.179897 0.000000 0.000000
							CHANNELS 3 Xrotation Yrotation Zrotation
							JOINT LeftHand
							{
								OFFSET 27.156403 0.000000 0.000000
								CHANNELS 3 Xrotation Yrotation Zrotation
								JOINT LeftHandIndex1
								{
									OFFSET 16.441200 0.000000 0.000000
									CHANNELS 3 Xrotation Yrotation Zrotation
									JOINT LeftHandIndex2
									{
										OFFSET 4.821899 0.000000 0.000000
										CHANNELS 3 Xrotation Yrotation Zrotation
										JOINT LeftHandIndex3
										{
											OFFSET 6.386497 0.000000 0.000000
											CHANNELS 3 Xrotation Yrotation Zrotation
											JOINT LeftHandIndex4
											{
												OFFSET 5.188988 0.000000 0.000000
												CHANNELS 3 Xrotation Yrotation Zrotation
												End Site
												{
													OFFSET -0.178703 5.185913 0.000177
												}
											}
										}
									}
								}
								JOINT LeftHandThumb1
								{
									OFFSET 6.534897 -5.032593 5.900300
									CHANNELS 3 Xrotation Yrotation Zrotation
									JOINT LeftHandThumb2
									{
										OFFSET 3.818176 -2.204422 2.204423
										CHANNELS 3 Xrotation Yrotation Zrotation
										JOINT LeftHandThumb3
										{
											OFFSET 3.252098 -1.877594 1.877601
											CHANNELS 3 Xrotation Yrotation Zrotation
											JOINT LeftHandThumb4
											{
												OFFSET 5.251778 -3.032120 3.032117
												CHANNELS 3 Xrotation Yrotation Zrotation
												End Site
												{
													OFFSET 0.000023 6.780014 0.000000
												}
											}
										}
									}
								}
							}
						}
					}
				}
				JOINT RightShoulder
				{
					OFFSET -12.896300 26.716293 -4.548400
					CHANNELS 3 Xrotation Yrotation Zrotation
					JOINT RightArm
					{
						OFFSET -19.027000 -4.857010 -1.718400
						CHANNELS 3 Xrotation Yrotation Zrotation
						JOINT RightForeArm
						{
							OFFSET -24.179897 0.000000 0.000000
							CHANNELS 3 Xrotation Yrotation Zrotation
							JOINT RightHand
							{
								OFFSET -27.156403 0.000000 0.000000
								CHANNELS 3 Xrotation Yrotation Zrotation
								JOINT RightHandThumb1
								{
									OFFSET -6.591202 -4.852203 5.988100
									CHANNELS 3 Xrotation Yrotation Zrotation
									JOINT RightHandThumb2
									{
										OFFSET -3.818176 -2.204422 2.204423
										CHANNELS 3 Xrotation Yrotation Zrotation
										JOINT RightHandThumb3
										{
											OFFSET -3.252098 -1.877594 1.877601
											CHANNELS 3 Xrotation Yrotation Zrotation
											JOINT RightHandThumb4
											{
												OFFSET -5.251778 -3.032120 3.032117
												CHANNELS 3 Xrotation Yrotation Zrotation
												End Site
												{
													OFFSET -0.000023 6.780014 0.000000
												}
											}
										}
									}
								}
								JOINT RightHandIndex1
								{
									OFFSET -16.029404 0.000000 0.000000
									CHANNELS 3 Xrotation Yrotation Zrotation
									JOINT RightHandIndex2
									{
										OFFSET -5.213303 0.000000 0.000000
										CHANNELS 3 Xrotation Yrotation Zrotation
										JOINT RightHandIndex3
										{
											OFFSET -6.386528 0.000000 0.000000
											CHANNELS 3 Xrotation Yrotation Zrotation
											JOINT RightHandIndex4
											{
												OFFSET -5.189026 0.000000 0.000000
												CHANNELS 3 Xrotation Yrotation Zrotation
												End Site
												{
													OFFSET 0.236702 5.183624 0.001972
												}
											}
										}
									}
								}
							}
						}
					}
				}
			}
		}
	}
	JOINT LeftUpLeg
	{
		OFFSET 14.073000 -7.904099 -1.463000
		CHANNELS 3 Xrotation Yrotation Zrotation
		JOINT LeftLeg
		{
			OFFSET -0.109806 -34.073280 4.093200
			CHANNELS 3 Xrotation Yrotation Zrotation
			JOINT LeftFoot
			{
				OFFSET 0.109806 -29.899420 -6.319000
				CHANNELS 3 Xrotation Yrotation Zrotation
				JOINT LeftToeBase
				{
					OFFSET 1.551100 -14.988700 20.535801
					CHANNELS 3 Xrotation Yrotation Zrotation
					JOINT LeftToe_End
					{
						OFFSET 0.221200 0.570800 13.248301
						CHANNELS 3 Xrotation Yrotation Zrotation
						End Site
						{
							OFFSET 0.000000 13.262435 0.000000
						}
					}
				}
			}
		}
	}
	JOINT RightUpLeg
	{
		OFFSET -13.839300 -7.904099 -1.463000
		CHANNELS 3 Xrotation Yrotation Zrotation
		JOINT RightLeg
		{
			OFFSET 0.109694 -34.073219 4.093300
			CHANNELS 3 Xrotation Yrotation Zrotation
			JOINT RightFoot
			{
				OFFSET -0.109694 -29.899384 -6.319200
				CHANNELS 3 Xrotation Yrotation Zrotation
				JOINT RightToeBase
				{
					OFFSET -1.551100 -14.988700 20.535801
					CHANNELS 3 Xrotation Yrotation Zrotation
					JOINT RightToe_End
					{
						OFFSET -0.221200 0.570900 13.248299
						CHANNELS 3 Xrotation Yrotation Zrotation
						End Site
						{
							OFFSET 0.000000 13.262440 0.000000
						}
					}
				}
			}
		}
	}
}
MOTION
Frames: 6
Frame Time: 0.033333
-0.384555 71.819809 -0.075038 -5.398678 -46.211984 -0.238044 9.452223 7.171231 -1.616275 2.187715 0.989897 -0.915630 2.202828 0.982779 -0.894153 0.084653 13.220561 4.538680 8.920927 20.138145 -4.130234 0.000001 -0.000000 -0.000001 1.117177 3.546353 -8.633311 -53.487003 4.935504 -51.503007 0.000060 -106.358067 0.000044 1.988609 -7.706152 -15.869243 0.255308 3.378215 -45.814331 5.654085 5.847759 -88.067448 2.162143 4.544818 -50.866372 -0.000001 0.000001 0.000001 -6.141222 -11.690803 -6.761701 9.914115 42.595512 3.409840 -0.422802 8.108103 27.509126 -0.000001 -0.000000 0.000002 3.036126 13.027199 -5.371408 -48.713698 27.172830 83.457064 0.000050 105.988260 -0.000060 -8.345379 17.548102 8.775692 -7.341092 13.749661 7.412322 9.855763 -44.489103 -3.903261 -0.115784 -14.513078 -28.973874 -0.000002 -0.000003 0.000001 -0.124377 -2.384788 45.108861 4.500581 -4.654547 88.071171 1.723225 -3.618381 50.920102 0.000001 -0.000001 0.000001 -31.861419 6.395813 19.963974 59.337548 -8.188294 3.970975 -25.244739 -6.905758 -16.448603 -1.594036 0.000026 0.000002 -0.000000 -0.000000 -0.000000 -18.986246 -11.114472 -32.040875 59.475108 -5.224251 -6.737433 -30.568891 -9.909677 26.194291 -0.012993 0.000009 0.000000 -0.000000 0.000000 0.000000 
0.147520 72.179497 -1.545775 -5.267885 -46.347939 -1.237111 8.746322 6.676536 -1.379607 3.569736 1.648806 -1.343760 2.509693 -1.723480 -0.296097 -0.380214 14.677329 3.571532 7.476979 20.494232 -2.788530 -0.000000 -0.000000 0.000000 1.212232 2.005093 -7.648596 -55.905419 6.722608 -50.026344 0.000211 -106.152471 0.000213 2.343090 -7.698682 -15.827367 0.255310 3.378214 -45.814331 5.654089 5.847759 -88.067448 2.162144 4.544819 -50.866382 0.000001 -0.000002 0.000004 -6.141219 -11.690805 -6.761699 9.914119 42.595505 3.409844 -0.422803 8.108104 27.509125 -0.000002 -0.000001 0.000001 2.564103 11.790624 -6.396772 -48.098288 27.414271 85.389850 0.000284 103.102156 -0.000275 -8.456286 18.178443 10.680192 -7.341091 13.749657 7.412320 9.855759 -44.489103 -3.903258 -0.115784 -14.513076 -28.973864 0.000001 0.000001 -0.000002 -0.124376 -2.384787 45.108857 4.500585 -4.654548 88.071171 1.723225 -3.618381 50.920102 0.000000 0.000002 -0.000001 -32.975887 5.268226 21.259671 57.990451 -7.409575 4.223625 -23.107112 -7.403103 -17.706015 -1.555940 -0.000014 -0.000003 -0.000000 -0.000002 -0.000000 -22.126268 -12.099018 -30.980324 61.263839 -1.321724 -6.823900 -31.320334 -7.914547 20.803925 -5.782424 -0.000001 0.000002 0.000001 -0.000000 0.000000 
1.031845 72.657417 -2.853477 -5.505828 -46.472013 -3.049132 7.899267 6.140072 -0.380996 5.654405 2.451423 -2.092775 3.014650 -5.938975 1.081343 -0.971189 16.886830 1.845150 7.076979 20.476970 -1.621946 0.000002 0.000000 -0.000001 1.576168 0.074395 -7.502387 -56.966380 10.477539 -48.047068 -0.000037 -108.274037 -0.000025 2.535290 -7.761917 -15.827196 0.255310 3.378216 -45.814334 5.654085 5.847760 -88.067448 2.162146 4.544821 -50.866372 -0.000003 -0.000000 -0.000004 -6.141221 -11.690801 -6.761695 9.914113 42.595505 3.409848 -0.422801 8.108106 27.509132 0.000001 -0.000001 -0.000000 2.144722 11.281386 -7.599677 -46.977047 27.546776 86.877165 0.000166 101.023306 -0.000187 -8.823851 18.915459 12.736328 -7.341093 13.749658 7.412321 9.855761 -44.489096 -3.903260 -0.115782 -14.513081 -28.973864 0.000003 -0.000001 0.000002 -0.124380 -2.384792 45.108861 4.500585 -4.654547 88.071164 1.723223 -3.618381 50.920102 -0.000000 0.000001 -0.000001 -33.996519 3.944140 22.759882 56.827591 -6.682593 4.434109 -20.963992 -7.956157 -18.542674 -1.454923 0.000012 -0.000011 0.000000 0.000002 -0.000000 -24.719694 -12.318056 -30.495401 61.754541 3.510389 -5.816984 -28.767807 -6.164944 17.342284 -12.070385 0.000021 -0.000003 0.000000 -0.000001 0.000000 
2.081856 73.237007 -4.044237 -5.919015 -46.502916 -5.161730 6.766461 6.113468 1.850381 7.412390 3.201782 -3.119595 3.459011 -9.872234 2.683974 -1.787163 19.105627 0.282286 7.603473 19.937920 -1.063667 0.000001 0.000000 0.000000 1.921824 -0.985839 -8.151975 -55.663200 13.113980 -47.769305 -0.000024 -110.455128 -0.000010 2.504270 -7.890165 -15.833914 0.255308 3.378215 -45.814331 5.654084 5.847759 -88.067455 2.162144 4.544818 -50.866376 -0.000000 0.000001 -0.000002 -6.141220 -11.690802 -6.761698 9.914118 42.595505 3.409847 -0.422799 8.108103 27.509132 -0.000000 0.000002 -0.000002 2.075547 11.629521 -7.988774 -45.382663 27.438687 87.073765 0.000551 99.746819 -0.000558 -8.817157 19.051003 13.566430 -7.341090 13.749659 7.412320 9.855760 -44.489100 -3.903261 -0.115780 -14.513078 -28.973867 0.000000 0.000000 -0.000000 -0.124375 -2.384785 45.108861 4.500588 -4.654548 88.071171 1.723228 -3.618377 50.920105 -0.000001 -0.000000 -0.000001 -34.854752 2.664502 24.221420 55.526450 -6.101495 4.623710 -18.706560 -8.564385 -19.050231 -1.310852 -0.000002 -0.000005 0.000000 -0.000003 -0.000000 -26.612763 -12.743558 -30.258319 60.936059 6.061617 -5.020998 -24.866887 -3.503285 15.310284 -16.672374 0.000001 -0.000003 -0.000001 0.000001 0.000000 
2.838307 73.642738 -5.371347 -6.345985 -46.358956 -7.043464 5.678783 6.426722 4.241300 8.868718 3.762084 -4.021945 3.856618 -12.703996 3.393318 -3.021172 20.843881 -0.532800 8.442930 19.107188 -1.062262 -0.000002 0.000000 -0.000000 2.088601 -0.922201 -9.074996 -54.275572 12.636185 -48.606198 0.000111 -111.052606 0.000105 2.322799 -8.018815 -15.830469 0.255309 3.378213 -45.814334 5.654085 5.847760 -88.067448 2.162145 4.544819 -50.866379 0.000000 -0.000001 -0.000005 -6.141218 -11.690805 -6.761696 9.914121 42.595508 3.409848 -0.422803 8.108100 27.509133 0.000000 -0.000003 0.000000 2.335743 12.539669 -7.517793 -43.747713 27.041079 85.711866 0.000367 99.480469 -0.000384 -8.184646 18.495433 12.943222 -7.341093 13.749657 7.412319 9.855760 -44.489096 -3.903264 -0.115784 -14.513081 -28.973867 -0.000001 -0.000001 0.000001 -0.124378 -2.384787 45.108857 4.500584 -4.654551 88.071164 1.723222 -3.618383 50.920098 0.000000 -0.000002 -0.000002 -35.590811 1.412563 25.723225 54.118048 -5.900599 4.800184 -16.446597 -9.112824 -19.666947 -1.143585 0.000012 0.000001 -0.000000 -0.000002 -0.000000 -28.846443 -12.591071 -31.068826 60.880126 5.826500 -5.300124 -19.299750 1.091662 15.396028 -17.280913 -0.000031 -0.000008 -0.000001 0.000001 -0.000000 
3.005898 73.659821 -6.868251 -6.789100 -45.947229 -8.364859 5.029568 7.028737 5.897879 9.970967 3.984916 -4.599401 4.377549 -14.244170 3.833373 -4.695886 22.056313 -0.617055 9.032594 18.272549 -1.152281 -0.000001 0.000000 0.000000 2.179204 -0.485316 -9.961822 -53.683562 10.374999 -49.626413 -0.000065 -110.130237 -0.000070 2.070124 -8.113993 -15.845829 0.255310 3.378214 -45.814331 5.654085 5.847760 -88.067455 2.162144 4.544819 -50.866376 0.000000 0.000001 0.000000 -6.141222 -11.690803 -6.761698 9.914119 42.595512 3.409848 -0.422801 8.108102 27.509128 0.000002 -0.000005 0.000001 2.577423 13.482957 -7.123464 -42.622020 26.494405 83.322072 -0.000073 100.238183 0.000080 -7.572804 17.590327 11.259518 -7.341092 13.749658 7.412322 9.855758 -44.489100 -3.903262 -0.115780 -14.513081 -28.973867 0.000002 0.000001 0.000000 -0.124377 -2.384787 45.108857 4.500589 -4.654546 88.071171 1.723227 -3.618382 50.920102 0.000002 0.000004 0.000002 -36.193763 0.257586 27.181552 52.858438 -6.211123 4.976510 -14.465552 -9.547032 -20.596492 -0.977992 0.000005 0.000014 -0.000000 0.000000 0.000000 -31.189922 -11.659469 -32.677534 62.195696 3.946581 -6.099865 -13.665580 7.161259 16.159275 -11.887222 -0.079142 2.520725 -0.000000 0.000002 -0.000001 
